<svg xmlns="http://www.w3.org/2000/svg" viewBox="0 0 1200 400" preserveAspectRatio="none">
  <g font-family="monospace, sans-serif" font-size="15" font-weight="bold" fill="#000000">
    <text x="8" y="20">0,0</text>
    <text x="108" y="20">0,1</text>
    <text x="208" y="20">0,2</text>
    <text x="308" y="20">0,3</text>
    <text x="408" y="20">0,4</text>
    <text x="508" y="20">0,5</text>
    <text x="608" y="20">0,6</text>
    <text x="708" y="20">0,7</text>
    <text x="808" y="20">0,8</text>
    <text x="908" y="20">0,9</text>
    <text x="1008" y="20">0,10</text>
    <text x="1108" y="20">0,11</text>

    <text x="8" y="120">1,0</text>
    <text x="108" y="120">1,1</text>
    <text x="208" y="120">1,2</text>
    <text x="308" y="120">1,3</text>
    <text x="408" y="120">1,4</text>
    <text x="508" y="120">1,5</text>
    <text x="608" y="120">1,6</text>
    <text x="708" y="120">1,7</text>
    <text x="808" y="120">1,8</text>
    <text x="908" y="120">1,9</text>
    <text x="1008" y="120">1,10</text>
    <text x="1108" y="120">1,11</text>

    <text x="8" y="220">2,0</text>
    <text x="108" y="220">2,1</text>
    <text x="208" y="220">2,2</text>
    <text x="308" y="220">2,3</text>
    <text x="408" y="220">2,4</text>
    <text x="508" y="220">2,5</text>
    <text x="608" y="220">2,6</text>
    <text x="708" y="220">2,7</text>
    <text x="808" y="220">2,8</text>
    <text x="908" y="220">2,9</text>
    <text x="1008" y="220">2,10</text>
    <text x="1108" y="220">2,11</text>

    <text x="8" y="320">3,0</text>
    <text x="1108" y="320">3,11</text>
  </g>
</svg>
